<svg id="Capa_1" enable-background="new 0 0 512 512" height="512" viewBox="0 0 512 512" width="512" xmlns="http://www.w3.org/2000/svg"><g><path d="m512 290.008c0-4.143-3.358-7.5-7.5-7.5s-7.5 3.357-7.5 7.5v48.834c-66.369 12.592-130.99 31.47-187.552 54.804l-294.448-169.998v-6.446h102.46c24.072 41.172 62.99 73.679 83.747 89.194 10.811 8.09 25.914 8.09 36.727 0 7.522-5.628 18.549-14.334 30.449-25.242l84.448 70.897c6.758 5.673 17.093 2.736 19.888-5.597l19.326-57.601 53.384-29.005c3.636-1.977 6.054-5.615 6.469-9.732s-1.23-8.164-4.4-10.825l-26.312-22.09h75.814v37.81c0 4.143 3.358 7.5 7.5 7.5s7.5-3.357 7.5-7.5v-40.31c0-6.893-5.607-12.5-12.5-12.5h-96.182l-60.823-51.063c2.075-68.717-53.606-126.337-122.925-126.337-67.812 0-122.98 55.173-122.98 122.99 0 19 5.02 37.308 12.988 54.41h-97.078c-6.893 0-12.5 5.607-12.5 12.5v133.83c0 4.143 3.358 7.5 7.5 7.5s7.5-3.357 7.5-7.5v-55.603l104.59 60.386-68.638 118.885h-35.952v-88.671c0-4.143-3.358-7.5-7.5-7.5s-7.5 3.357-7.5 7.5v91.171c0 6.893 5.607 12.5 12.5 12.5h487c6.893 0 12.5-5.607 12.5-12.5 0-36.437 0-147.728 0-184.691zm-127.982-13.864c-2.785 1.514-4.874 4.003-5.882 7.008l-18.471 55.052-105.906-88.912c-1.057-.887-1.196-2.464-.307-3.522 6.696-7.976 72.162-85.954 72.162-85.954.882-1.05 2.462-1.196 3.522-.307l105.906 88.912zm-164.448-236.343c58.25 0 105.867 46.37 107.904 104.138-4.974.019-9.908 2.132-13.348 6.231l-31.259 37.233-14.253-11.966c4.627-8.174 7.283-17.606 7.283-27.651 0-31.058-25.268-56.325-56.326-56.325s-56.325 25.268-56.325 56.325c0 31.059 25.268 56.326 56.325 56.326 15.619 0 29.769-6.394 39.982-16.697l13.669 11.476-31.259 37.233c-3.006 3.58-4.437 8.117-4.031 12.773.406 4.657 2.602 8.877 6.182 11.882l12.676 10.642c-10.886 9.871-20.912 17.778-27.843 22.965-5.521 4.132-13.233 4.131-18.756-.003-13.502-10.092-39.378-31.006-60.975-57.682-20.628-25.48-37.625-56.278-37.625-88.91-.001-59.545 48.438-107.99 107.979-107.99zm36.87 125.416c-3.171-2.662-7.902-2.25-10.566.922-2.663 3.172-2.25 7.903.922 10.566l1.216 1.021c-7.415 7.047-17.428 11.386-28.441 11.386-22.787 0-41.325-18.539-41.325-41.326s18.539-41.325 41.325-41.325c22.787 0 41.326 18.538 41.326 41.325 0 6.365-1.449 12.397-4.031 17.788zm240.56 188.894v15.292c-53.494 10.488-106.629 25.439-154.318 43.431l-16.75-9.67c52.203-20.634 110.846-37.456 171.068-49.053zm-360.669.209c.995-1.723 1.264-3.77.75-5.691-.515-1.921-1.772-3.56-3.495-4.554l-118.586-68.466v-34.641l400.504 231.23h-60l-182.947-105.623c-3.587-2.071-8.174-.844-10.245 2.745l-59.397 102.879h-34.642zm60.739 117.879c17.527-13.251 38.209-26.147 61.747-38.501l15.413 8.898c-18.977 9.527-36.235 19.452-51.476 29.603zm-76.836 0 51.317-88.884 71.966 41.549c-27.631 15.079-51.244 30.963-70.384 47.334h-52.899zm169.631-20.576 35.639 20.576h-74.443c11.975-7.025 24.951-13.904 38.804-20.576zm155.639 20.576-85.922-49.607c42.993-15.485 90.013-28.465 137.418-37.904v87.511z"/><path d="m301.659 225.436 6.107 16.513-8.354 15.497c-4.056 7.523 1.678 16.551 10.112 16.193l17.592-.706 12.158 12.734c5.837 6.115 16.215 3.602 18.525-4.612l4.765-16.949 15.869-7.629c7.654-3.68 8.407-14.327 1.336-19.043l-14.647-9.77-2.351-17.449c-1.134-8.418-11.028-12.423-17.699-7.155l-13.817 10.911-17.323-3.157c-8.362-1.515-15.222 6.653-12.273 14.622zm20.804 13.01-4.295-11.612 12.179 2.219c3.103.57 6.305-.23 8.78-2.187l9.717-7.673 1.653 12.271c.421 3.126 2.168 5.923 4.792 7.673l10.3 6.87-11.157 5.363c-2.845 1.366-4.966 3.893-5.819 6.93l-3.351 11.919-8.55-8.955c-5.322-5.572-11.806-2.55-20.758-2.896l5.875-10.898c1.497-2.776 1.728-6.064.634-9.024z"/></g></svg>